# xmcd
#
# Track frame offsets:
#	183
#	12280
#	24443
#	47210
#	66068
#	87808
#	100415
#	111363
#	121180
#	135370
#	146393
#	158385
#	172190
#	185760
#	199655
#	211635
#	223198
#	234738
#	247415
#	257543
#	271643
#	284020
#	297228
#	307808
#	319113
#
# Disc length: 4433 seconds
#
# Revision: 1
# Processed by: cddbd v1.4PL0 Copyright (c) Steve Scherf et al.
# Submitted via: audiograbber 1.81.03
#
DISCID=6c114f19
DTITLE=Various Artist - 25 Blues Evergreens [CD 2]
DYEAR=1991
DGENRE=Blues
TTITLE0=John Lee Hooker - I'm In The Mood
TTITLE1=Howlin' Wolf - Spoonful
TTITLE2=John Mayall - Baby What You Want Me To Do
TTITLE3=Muddy Waters - I Got My Mojo Working
TTITLE4=Elmore James - Something Inside Of Me
TTITLE5=Little Walter - I Got To Find My Baby
TTITLE6=Howlin' Wolf - Little Red Rooster
TTITLE7=John Lee Hooker - I Wanna Walk
TTITLE8=Sonny Boy Williamson - Help Me
TTITLE9=Eric Clapton - Snake Drive
TTITLE10=BB King - Dark Is The Night (Part 1)
TTITLE11=Jeff Beck - Jeff's Blues
TTITLE12=John Mayall - A Big Man
TTITLE13=Howlin' Wolf - Highway 49
TTITLE14=John Lee Hooker - Crawling King Snake
TTITLE15=Little Walter - As Long As I Have You
TTITLE16=BB King - Every Day I Have The Blues
TTITLE17=Howlin' Wolf - Back Door Man
TTITLE18=John Lee Hooker - Dimples
TTITLE19=BB King - Whole Lotta Love
TTITLE20=Elmore James - Happy Home
TTITLE21=Sonny Boy Williamson - I Never Do Wrong
TTITLE22=Howlin' Wolf - Who's Been Talking
TTITLE23=Muddy Waters - Crawlin' Kingsnake
TTITLE24=John Lee Hooker - Ground Hog Blues
EXTD=Revised by The Count\n                   The Netherlands 
EXTT0=
EXTT1=
EXTT2=
EXTT3=
EXTT4=
EXTT5=
EXTT6=
EXTT7=
EXTT8=
EXTT9=
EXTT10=
EXTT11=
EXTT12=
EXTT13=
EXTT14=
EXTT15=
EXTT16=
EXTT17=
EXTT18=
EXTT19=
EXTT20=
EXTT21=
EXTT22=
EXTT23=
EXTT24=
PLAYORDER=
